# xmcd
#
# Track frame offsets:
#	150
#	16287
#	33410
#	49641
#	63315
#	79462
#	95400
#	111485
#	127779
#	140195
#	155921
#	173110
#	189954
#	204457
#	219454
#	233024
#	248690
#
# Disc length: 3557 seconds
#
# Revision: 1
# Processed by: cddbd v1.5.2PL0 Copyright (c) Steve Scherf et al.
# Submitted via: EZCDAudioConverter 6.2.3.1
#
DISCID=eb0de311
DTITLE=Simone and Simaria - Live
DYEAR=1900
DGENRE=Sertanejo
TTITLE0=Regime Fechado
TTITLE1=126 Cabides
TTITLE2=Duvido Você Não Tomar Uma
TTITLE3=Amando Por Um
TTITLE4=Te Amo Chega Dá Raiva (Part. Bruno and Marrone)
TTITLE5=Agora E Sempre
TTITLE6=Amor De Motel
TTITLE7=Chora Boy
TTITLE8=Defeitos
TTITLE9=Um Bom Substituto
TTITLE10=Legítima Defesa
TTITLE11=Amor Mal Resolvido (Part. Jorge and Mateus)
TTITLE12=Fica Com Essa Bandida
TTITLE13=Quem Me Viu, Mentiu
TTITLE14=Meu Violão E O Nosso Cachorro
TTITLE15=Quando O Mel É Bom
TTITLE16=Loka
EXTD=
EXTT0=
EXTT1=
EXTT2=
EXTT3=
EXTT4=
EXTT5=
EXTT6=
EXTT7=
EXTT8=
EXTT9=
EXTT10=
EXTT11=
EXTT12=
EXTT13=
EXTT14=
EXTT15=
EXTT16=
PLAYORDER=
